<?xml version="1.0" encoding="UTF-8"?>
<svg version="1.1" xmlns="http://www.w3.org/2000/svg" width="467" height="205">
<path d="M0 0 C0.79169118 -0.0060911 1.58338236 -0.01218221 2.39906418 -0.01845789 C5.04289291 -0.03506172 7.68623863 -0.03031588 10.33010864 -0.0255127 C12.22932433 -0.03285456 14.12853556 -0.04144113 16.02774048 -0.05117798 C21.18069009 -0.07339058 26.33347978 -0.07632477 31.4864707 -0.07443047 C35.79062065 -0.07431075 40.09473674 -0.08287535 44.39887726 -0.09120798 C54.55468832 -0.11044125 64.71041718 -0.11332618 74.86624146 -0.10656738 C85.33754704 -0.09992677 95.80850035 -0.12279208 106.27973449 -0.15988111 C115.27525578 -0.19058519 124.27066379 -0.20193736 133.26623642 -0.1980443 C138.63655147 -0.1959775 144.0065924 -0.2014455 149.37685776 -0.22593689 C154.42820656 -0.24821295 159.47898296 -0.24631885 164.53033447 -0.22600937 C166.38142466 -0.22260084 168.23255345 -0.22768165 170.08359146 -0.24199295 C186.97924086 -0.36358122 186.97924086 -0.36358122 192.59121895 4.02321625 C197.09685824 8.51279946 201.19737825 12.85559833 201.24147034 19.50408936 C201.25144547 20.31419968 201.26142059 21.12431 201.271698 21.95896912 C201.27236267 22.83904129 201.27302734 23.71911346 201.27371216 24.62585449 C201.28203568 25.5596846 201.29035919 26.49351471 201.29893494 27.4556427 C201.32304119 30.5446489 201.33180858 33.63344387 201.33840942 36.72253418 C201.34737643 38.87241682 201.35649829 41.02229882 201.36576843 43.17218018 C201.3822635 47.68133053 201.3899593 52.19040659 201.39285278 56.69958496 C201.39823203 62.46766266 201.43589152 68.23503853 201.48159695 74.00291824 C201.51139451 78.44513473 201.51857696 82.88718293 201.51957893 87.32949066 C201.52377711 89.4553015 201.53619513 91.58111303 201.55709648 93.70682526 C201.58406141 96.6868641 201.57916943 99.66528572 201.56668091 102.64538574 C201.58893234 103.95334862 201.58893234 103.95334862 201.6116333 105.28773499 C201.52941005 112.2049618 199.26531254 116.90185825 194.52458858 121.92224503 C188.99642928 126.90449885 183.27356821 127.69302344 176.08648682 127.65510559 C175.31112985 127.65893114 174.53577287 127.66275669 173.73692024 127.66669816 C171.14844719 127.67698635 168.56019769 127.67304399 165.97171021 127.66906738 C164.11190588 127.67341619 162.25210334 127.6785999 160.39230347 127.68455505 C155.34680777 127.69793857 150.30138701 127.6985244 145.25587702 127.69599175 C141.04120719 127.69492154 136.82655249 127.69980673 132.61188591 127.70459718 C122.66703717 127.71569026 112.7222262 127.71613097 102.77737427 127.71008301 C92.52428267 127.70404338 82.27132831 127.71635444 72.01826012 127.73765308 C63.20958556 127.75527723 54.40095464 127.76126912 45.5922631 127.75801533 C40.33380074 127.75620354 35.07543627 127.75882834 29.8169899 127.77272987 C24.870818 127.78531668 19.92485977 127.78335597 14.9786911 127.77031898 C13.16630608 127.76795547 11.35390597 127.77067981 9.54153824 127.77894211 C7.06148297 127.78943054 4.58214191 127.78129243 2.10211182 127.76863098 C1.39022709 127.77600527 0.67834236 127.78337955 -0.05511463 127.7909773 C-6.06584975 127.72671631 -11.61054109 126.44943315 -16.27487183 122.49206543 C-16.81369995 121.82046387 -17.35252808 121.1488623 -17.90768433 120.45690918 C-18.73912964 119.45337402 -18.73912964 119.45337402 -19.58737183 118.42956543 C-24.09423972 112.08340821 -24.18275147 105.56844495 -24.19381714 97.96154785 C-24.19878204 97.13632126 -24.20374695 96.31109467 -24.2088623 95.46086121 C-24.223406 92.74469147 -24.2302726 90.02858012 -24.23580933 87.31237793 C-24.24156684 85.41437276 -24.24732449 83.51636759 -24.25308228 81.61836243 C-24.26356986 77.6432366 -24.2694273 73.66813087 -24.2729187 69.69299316 C-24.27840109 64.61579173 -24.30243325 59.53885876 -24.33089066 54.46174145 C-24.34957322 50.54192849 -24.35472561 46.62217953 -24.35625458 42.70232582 C-24.35926854 40.8313481 -24.36725433 38.96037117 -24.38043976 37.08943748 C-24.39761955 34.46457205 -24.39559126 31.84035395 -24.38912964 29.2154541 C-24.39834442 28.45307434 -24.4075592 27.69069458 -24.41705322 26.9052124 C-24.36161083 19.66456612 -22.72706749 12.47518532 -17.72018433 7.01940918 C-17.16717651 6.3929248 -16.6141687 5.76644043 -16.04440308 5.12097168 C-11.08725429 0.8664867 -6.36333409 -0.04632178 0 0 Z " fill="#FDA520" transform="translate(255.03268432617188,52.6055908203125)"/>
<path d="M0 0 C4.62 0 9.24 0 14 0 C14 9.57 14 19.14 14 29 C16.64 27.02 19.28 25.04 22 23 C25.03235777 21.48382111 27.87925013 21.78965588 31.25 21.75 C32.55453125 21.72421875 33.8590625 21.6984375 35.203125 21.671875 C41.03884642 22.1761966 44.87066912 24.30125845 48.6875 28.6875 C49.24824219 29.31011719 49.80898438 29.93273437 50.38671875 30.57421875 C54.50063832 36.76003971 55.46859762 42.68214365 55.3125 50 C55.31572266 50.75539062 55.31894531 51.51078125 55.32226562 52.2890625 C55.23680317 61.33254452 53.23795289 69.19260742 47 76 C41.13728059 80.48571058 35.14270278 81.80625379 27.83984375 81.49609375 C21.98228846 80.47283444 18.0318807 77.17894018 14 73 C14 75.31 14 77.62 14 80 C9.38 80 4.76 80 0 80 C0 53.6 0 27.2 0 0 Z " fill="#020100" transform="translate(385,76)"/>
<path d="M0 0 C41.08570545 0 41.08570545 0 48.66796875 7.453125 C54.26601913 13.95408673 54.35029696 20.20019086 54.28125 28.51171875 C53.78600313 34.6541556 51.52013892 38.19983549 47.625 42.8125 C42.19905077 47.33412436 36.96922204 49.14005623 30.015625 49.09765625 C29.17290039 49.09515869 28.33017578 49.09266113 27.46191406 49.09008789 C26.40198242 49.08098389 25.34205078 49.07187988 24.25 49.0625 C20.8675 49.041875 17.485 49.02125 14 49 C14 58.24 14 67.48 14 77 C9.38 77 4.76 77 0 77 C0 51.59 0 26.18 0 0 Z M14 13 C14 20.59 14 28.18 14 36 C18.0528125 36.0928125 18.0528125 36.0928125 22.1875 36.1875 C23.02949951 36.21481201 23.87149902 36.24212402 24.73901367 36.27026367 C29.30010232 36.32068341 32.35745463 36.05260393 36 33 C38.70867441 28.98623701 38.67655958 24.67744898 38 20 C35.63884887 15.88984803 33.45710671 14.37753985 29 13 C26.34490385 12.86243025 23.8323525 12.80970927 21.1875 12.875 C18.815625 12.91625 16.44375 12.9575 14 13 Z " fill="#FEFEFE" transform="translate(0,74)"/>
<path d="M0 0 C4.62 0 9.24 0 14 0 C14 9.9 14 19.8 14 30 C18.455 26.535 18.455 26.535 23 23 C28.13328561 20.4333572 36.12682943 21.27294769 41.5625 22.6484375 C46.7050357 24.92751582 48.73706642 27.93102879 51 33 C51.87094074 35.86645561 52.12232065 38.41097959 52.11352539 41.40136719 C52.11344986 42.2619574 52.11337433 43.12254761 52.11329651 44.00921631 C52.10813522 44.92914368 52.10297394 45.84907104 52.09765625 46.796875 C52.0962413 47.74564514 52.09482635 48.69441528 52.09336853 49.67193604 C52.08777742 52.69798962 52.07522652 55.72396883 52.0625 58.75 C52.05748385 60.80338435 52.05292115 62.85676986 52.04882812 64.91015625 C52.03781089 69.94013276 52.02055233 74.97005378 52 80 C47.05 80 42.1 80 37 80 C36.9906543 78.77893555 36.98130859 77.55787109 36.97167969 76.29980469 C36.93179077 71.76704501 36.86603507 67.23496485 36.79248047 62.70263672 C36.76426447 60.74146253 36.74305306 58.78017449 36.72900391 56.81884766 C36.70758301 53.99843023 36.66093791 51.17938257 36.609375 48.359375 C36.60814636 47.48319519 36.60691772 46.60701538 36.60565186 45.70428467 C36.50591896 40.72409135 36.50591896 40.72409135 34.11206055 36.45043945 C30.84658336 34.20790102 28.26598159 34.38787189 24.41015625 34.546875 C20.6714164 35.24978233 19.16070592 36.9615073 17 40 C14.8178085 44.30185463 14.65983755 48.41173894 14.5859375 53.14453125 C14.56657135 53.91431808 14.5472052 54.68410492 14.5272522 55.47721863 C14.46774377 57.92220171 14.42118705 60.36723262 14.375 62.8125 C14.33679369 64.47593134 14.29774043 66.13934347 14.2578125 67.80273438 C14.16206617 71.86833241 14.07792991 75.93402301 14 80 C9.38 80 4.76 80 0 80 C0 53.6 0 27.2 0 0 Z " fill="#030200" transform="translate(251,76)"/>
<path d="M0 0 C5.72832798 4.61214642 8.51923928 9.64365533 10.8125 16.5234375 C11.54186039 28.39646812 11.25274969 37.60187181 4.6875 47.8359375 C-2.18604847 54.26121107 -9.85764419 56.73221749 -19.1875 56.5234375 C-27.06912947 56.00017579 -33.29164544 53.89732505 -39.1875 48.5234375 C-46.44238356 39.77855341 -47.09063359 29.49651059 -46.1875 18.5234375 C-44.65664815 11.46064373 -41.79802604 5.2244947 -36.1875 0.5234375 C-25.47608659 -6.2384007 -10.74498973 -7.25286807 0 0 Z M-28 13.5234375 C-31.39806672 19.24649723 -30.705613 26.10025576 -30.1875 32.5234375 C-29.10762623 36.2890077 -27.75917453 39.52507821 -24.32421875 41.70703125 C-19.70824808 43.47072023 -14.86394079 43.17943607 -10.3125 41.3984375 C-6.1347502 37.71218768 -4.69273872 33.22222657 -4.1875 27.73828125 C-4.1875 22.2229729 -5.14112823 17.25536318 -8 12.5234375 C-11.04963749 9.73519751 -13.55472792 8.73276725 -17.625 8.2109375 C-21.90596078 8.73300589 -25.10238513 10.32606936 -28 13.5234375 Z " fill="#FEFEFE" transform="translate(109.1875,96.4765625)"/>
<path d="M0 0 C4.95 0 9.9 0 15 0 C15.01981934 1.22106445 15.03963867 2.44212891 15.06005859 3.70019531 C15.13616123 8.23279354 15.22487161 12.7650727 15.31738281 17.29736328 C15.35565327 19.2585622 15.39050954 21.21983084 15.421875 23.18115234 C15.4675674 26.00122997 15.525555 28.82082838 15.5859375 31.640625 C15.59748871 32.51680481 15.60903992 33.39298462 15.62094116 34.29571533 C15.64081085 35.11626404 15.66068054 35.93681274 15.68115234 36.78222656 C15.69447601 37.50170471 15.70779968 38.22118286 15.7215271 38.96246338 C16.04669514 41.34166003 16.74607346 42.95879833 18 45 C22.02192609 47.01096304 26.08347833 46.28200667 30.25 45 C33.9031143 42.3431896 34.85177697 39.21708684 36 35 C36.40134996 32.25360361 36.48649278 29.5542382 36.51171875 26.78125 C36.52966995 26.03790405 36.54762115 25.29455811 36.56611633 24.52868652 C36.61971465 22.18584646 36.6539498 19.84320395 36.6875 17.5 C36.72071792 15.89841028 36.75521163 14.29684649 36.79101562 12.6953125 C36.87541066 8.79701889 36.94245932 4.89877869 37 1 C41.62 1 46.24 1 51 1 C51 19.81 51 38.62 51 58 C46.38 58 41.76 58 37 58 C36.505 54.04 36.505 54.04 36 50 C35.62488281 50.48210937 35.24976563 50.96421875 34.86328125 51.4609375 C34.35152344 52.09257812 33.83976562 52.72421875 33.3125 53.375 C32.81363281 54.00148437 32.31476563 54.62796875 31.80078125 55.2734375 C27.07313797 59.80623214 21.28856586 59.42115236 15.1015625 59.31640625 C9.77610194 58.77312879 7.29721558 56.36928311 3.75 52.625 C-0.28371951 46.57442073 -0.27311159 40.80942436 -0.1953125 33.7890625 C-0.1924826 32.82092621 -0.18965271 31.85278992 -0.18673706 30.85531616 C-0.17558696 27.77841572 -0.1504918 24.70181172 -0.125 21.625 C-0.11496352 19.5325563 -0.10583884 17.44010802 -0.09765625 15.34765625 C-0.07566453 10.23165749 -0.04117025 5.11587892 0 0 Z " fill="#060300" transform="translate(317,98)"/>
<path d="M0 0 C3.0625 2.1875 3.0625 2.1875 5 4 C4.43040847 7.62613199 3.07625466 9.25517741 0.4375 11.75 C-0.52349609 12.67039062 -0.52349609 12.67039062 -1.50390625 13.609375 C-1.99761719 14.06828125 -2.49132812 14.5271875 -3 15 C-3.99 14.360625 -4.98 13.72125 -6 13.0625 C-10.09024018 10.7358654 -13.29411205 10.15180284 -18 10 C-20.89765372 10.8043195 -20.89765372 10.8043195 -23 12 C-22.67 13.65 -22.34 15.3 -22 17 C-17.29750307 18.60157504 -12.60169837 20.11483824 -7.8125 21.4375 C-1.97359844 23.17829053 2.73939667 25.68006825 6 31 C7.79469111 36.38407334 7.49680154 41.34399488 5.875 46.75 C2.78311414 52.10926883 -1.11611382 54.9868642 -7 57 C-17.46249029 58.83500537 -28.01251048 58.10900786 -37 52 C-39.5 49.25 -39.5 49.25 -41 47 C-38.83735988 43.01618925 -36.28788824 40.11016455 -33 37 C-30.45828796 38.17309786 -28.27116256 39.4908497 -25.9375 41.0625 C-21.4820745 44.0011849 -18.27136853 44.27744045 -13 44 C-10.64630193 43.11935073 -10.64630193 43.11935073 -9 42 C-9 40.02 -9 38.04 -9 36 C-10.0621875 35.75765625 -11.124375 35.5153125 -12.21875 35.265625 C-29.51272135 31.21196718 -29.51272135 31.21196718 -35.375 25.8125 C-38.00779887 21.25573273 -39.375486 16.92205129 -38.6953125 11.62890625 C-37.11642346 5.84939265 -34.15932694 2.05552372 -29 -1 C-19.98078218 -4.66798273 -8.74691892 -4.42905428 0 0 Z " fill="#FEFEFE" transform="translate(168,95)"/>
<path d="M0 0 C0 4.29 0 8.58 0 13 C5.61 13 11.22 13 17 13 C17 16.96 17 20.92 17 25 C11.39 25 5.78 25 0 25 C0.11369916 29.58387159 0.24046184 34.16673351 0.375 38.75 C0.4059375 40.05195312 0.436875 41.35390625 0.46875 42.6953125 C0.50742188 43.94570312 0.54609375 45.19609375 0.5859375 46.484375 C0.63306885 48.21252441 0.63306885 48.21252441 0.68115234 49.97558594 C0.98806965 52.88683521 1.29844397 54.63231186 3 57 C7.3676752 58.07131656 10.66675697 57.9770307 15 57 C15.6708712 58.6232687 16.33657029 60.24867578 17 61.875 C17.37125 62.77992188 17.7425 63.68484375 18.125 64.6171875 C19 67 19 67 19 69 C12.89414685 72.79553034 6.33769119 73.63283597 -0.7578125 72.59765625 C-6.71702864 71.09451069 -9.7293986 69.21252098 -13 64 C-14.90848794 59.34978782 -15.26949193 55.15997889 -15.1953125 50.1953125 C-15.1924826 49.4713327 -15.18965271 48.74735291 -15.18673706 48.00143433 C-15.17562087 45.7091151 -15.15053312 43.41719937 -15.125 41.125 C-15.1149591 39.56250568 -15.10583519 38.00000518 -15.09765625 36.4375 C-15.07570973 32.62484662 -15.04124013 28.81249152 -15 25 C-17.97 25 -20.94 25 -24 25 C-24 21.04 -24 17.08 -24 13 C-21.03 13 -18.06 13 -15 13 C-15 9.37 -15 5.74 -15 2 C-9.77487721 0.53329887 -5.4185766 -0.22577402 0 0 Z " fill="#FEFEFE" transform="translate(203,80)"/>
<path d="M0 0 C3.55370238 1.3609924 4.64134233 2.40747309 6.60546875 5.65234375 C9.35614821 12.25551544 9.35186014 21.40562105 6.875 28.1875 C4.56460763 31.65308855 2.77647689 33.21864298 -1 35 C-5.1203861 35.65402954 -7.39997605 35.94247986 -10.99609375 33.82421875 C-15.66254304 30.06971589 -17.68427795 26.78167741 -18.37109375 20.73046875 C-18.51085265 13.27392033 -18.33394522 7.58937358 -13 2 C-8.73755081 -0.8416328 -5.00032912 -0.50403317 0 0 Z " fill="#FAA11C" transform="translate(417,110)"/>
</svg>
